<?xml version="1.0" encoding="UTF-8" standalone="no"?>
<!DOCTYPE svg PUBLIC "-//W3C//DTD SVG 1.1//EN" "http://www.w3.org/Graphics/SVG/1.1/DTD/svg11.dtd">
<svg width="100%" height="100%" viewBox="0 0 512 512" version="1.1" xmlns="http://www.w3.org/2000/svg" xmlns:xlink="http://www.w3.org/1999/xlink" xml:space="preserve" xmlns:serif="http://www.serif.com/" style="fill-rule:evenodd;clip-rule:evenodd;stroke-linejoin:round;stroke-miterlimit:2;">
    <g transform="matrix(27.757015,0,0,27.757015,-76.879788,-77.071086)">
        <path d="M12,16C11.734,16.002 11.479,15.897 11.29,15.71L5.29,9.71C5.102,9.522 4.996,9.266 4.996,9C4.996,8.449 5.449,7.996 6,7.996C6.266,7.996 6.522,8.102 6.71,8.29L12,13.59L17.29,8.3C17.471,8.145 17.702,8.06 17.94,8.06C18.489,8.06 18.94,8.511 18.94,9.06C18.94,9.298 18.855,9.529 18.7,9.71L12.7,15.71C12.514,15.895 12.262,15.999 12,16Z" style="fill-rule:nonzero;"/>
    </g>
</svg>
