<svg xmlns="http://www.w3.org/2000/svg" version="1.1" xmlns:xlink="http://www.w3.org/1999/xlink" width="512" height="512" x="0" y="0" viewBox="0 0 24 24" style="enable-background:new 0 0 512 512" xml:space="preserve" class=""><g><path d="M19 24h-2a1 1 0 0 1 0-2h2a3 3 0 0 0 3-3v-2a1 1 0 0 1 2 0v2a5.006 5.006 0 0 1-5 5ZM1 8a1 1 0 0 1-1-1V5a5.006 5.006 0 0 1 5-5h2a1 1 0 0 1 0 2H5a3 3 0 0 0-3 3v2a1 1 0 0 1-1 1ZM7 24H5a5.006 5.006 0 0 1-5-5v-2a1 1 0 0 1 2 0v2a3 3 0 0 0 3 3h2a1 1 0 0 1 0 2ZM23 8a1 1 0 0 1-1-1V5a3 3 0 0 0-3-3h-2a1 1 0 0 1 0-2h2a5.006 5.006 0 0 1 5 5v2a1 1 0 0 1-1 1Z" fill="#ffffff" opacity="1" data-original="#000000" class=""></path></g></svg>