<svg clip-rule="evenodd" fill-rule="evenodd" height="512" stroke-linejoin="round" stroke-miterlimit="2" viewBox="0 0 24 24" width="512" xmlns="http://www.w3.org/2000/svg"><g id="Icon"><path d="m20.263 17.722c.354-2.299.812-5.277 1.124-7.304.122-.793-.109-1.6-.631-2.209-.523-.609-1.285-.959-2.087-.959-3.452 0-9.886 0-13.338 0-.802 0-1.564.35-2.087.959-.522.609-.753 1.416-.631 2.209.312 2.027.77 5.005 1.124 7.304.356 2.317 2.35 4.028 4.695 4.028h7.136c2.345 0 4.339-1.711 4.695-4.028zm-1.482-.228c-.244 1.586-1.609 2.756-3.213 2.756-2.17 0-4.966 0-7.136 0-1.604 0-2.969-1.17-3.213-2.756-.353-2.299-.811-5.277-1.123-7.304-.056-.36.049-.727.287-1.004.237-.277.584-.436.948-.436h13.338c.364 0 .711.159.948.436.238.277.343.644.287 1.004z"/><path d="m8.212 6.237s.28-.841.544-1.632c.17-.511.647-.855 1.186-.855h4.116c.539 0 1.016.344 1.186.855.264.791.544 1.632.544 1.632.131.393.556.605.949.475.393-.131.605-.556.475-.949 0 0-.281-.841-.545-1.633-.374-1.123-1.425-1.88-2.609-1.88h-4.116c-1.184 0-2.235.757-2.609 1.88-.264.792-.545 1.633-.545 1.633-.13.393.082.818.475.949.393.13.818-.082.949-.475z"/><path d="m11.25 13v3.5c0 .414.336.75.75.75s.75-.336.75-.75v-3.5c0-.414-.336-.75-.75-.75s-.75.336-.75.75z"/><path d="m15.258 12.894-.5 3.5c-.059.41.226.79.636.848.41.059.79-.226.848-.636l.5-3.5c.059-.41-.226-.79-.636-.848-.41-.059-.79.226-.848.636z"/><path d="m7.258 13.106.5 3.5c.058.41.438.695.848.636.41-.058.695-.438.636-.848l-.5-3.5c-.058-.41-.438-.695-.848-.636-.41.058-.695.438-.636.848z"/></g></svg>